#!OML:ASF H:\ManfredETheater\Project 1\Capture day 1\Session 1\subject.ASF
:FULLY-SPECIFIED
:DEGREES
107
root 1.69257 9.10843 -5.88813 -21.8223 0.133069 -211.598
lowerback 39.0291 -1.17235 -3.11084
upperback 12.7113 -3.23594 -9.0554
thorax -5.38394 -0.789376 -6.86472
lowerneck -7.22155 -3.50025 -8.83784
upperneck 10.6426 -2.65717 -9.97917
head 4.42454 -2.24686 -1.81743
rclavicle -3.49861e-014 -9.54166e-015
rhumerus -13.0883 11.4981 -57.3637
rradius 105.745
rwrist -2.74991
rhand -35.1417 25.1067
rfingers 7.12502
rthumb -8.28153 -4.71094
lclavicle -3.49861e-014 -9.54166e-015
lhumerus 69.4861 -24.7714 48.3235
lradius 77.617
lwrist -18.4199
lhand -56.5304 -29.0223
lfingers 7.12502
lthumb -28.843 -1.23166
rfemur -36.537 -31.6101 27.6131
rtibia 107.137
rfoot 13.9109 3.56384
rtoes 4.35823
lfemur -67.2107 16.0708 2.57447
ltibia 90.3808
lfoot 13.0445 -0.810205
ltoes -1.16006
108
root 1.64744 8.6456 -6.36302 -20.2307 2.47223 -212.33
lowerback 39.5906 -1.01428 -3.01984
upperback 13.3417 -2.82204 -8.72627
thorax -4.79359 -0.493761 -6.72229
lowerneck -7.19563 -3.86728 -8.86415
upperneck 11.349 -3.19299 -8.99571
head 4.64718 -2.49452 -1.55485
rclavicle 0 -4.45278e-014
rhumerus -13.8019 10.7287 -59.5619
rradius 106.948
rwrist 2.30156
rhand -36.8338 10.2981
rfingers 7.12502
rthumb -9.91433 -19.4485
lclavicle 0 -4.45278e-014
lhumerus 69.0221 -26.2312 48.6484
lradius 78.2734
lwrist -18.1577
lhand -54.0994 -25.2178
lfingers 7.12502
lthumb -26.5184 2.9462
rfemur -37.4263 -32.5122 27.0291
rtibia 108.805
rfoot 13.827 3.98611
rtoes 3.43725
lfemur -67.5258 16.3882 2.44421
ltibia 91.4405
lfoot 12.9462 -1.31709
ltoes -1.09717
109
root 1.5964 8.17797 -6.83382 -18.6162 4.89896 -212.945
lowerback 40.3198 -0.732464 -2.90154
upperback 13.9587 -2.21347 -8.24797
thorax -4.23903 -0.0905077 -6.50675
lowerneck -7.16023 -4.33366 -8.88023
upperneck 11.8993 -3.95272 -7.55139
head 4.83241 -2.81107 -1.16385
rclavicle 6.36111e-014 0
rhumerus -14.2174 9.85157 -61.1472
rradius 108.19
rwrist 5.23691
rhand -36.9689 -1.60055
rfingers 7.12502
rthumb -10.0447 -31.3408
lclavicle 6.36111e-014 0
lhumerus 68.5939 -27.9565 49.1806
lradius 79.0186
lwrist -17.9033
lhand -51.7514 -21.2788
lfingers 7.12502
lthumb -24.2692 7.20515
rfemur -38.3226 -33.5174 26.3348
rtibia 110.498
rfoot 13.7192 4.30326
rtoes 2.58424
lfemur -67.9299 16.6601 2.13434
ltibia 92.5898
lfoot 13.0725 -1.76837
ltoes -0.772715
110
root 1.54001 7.70999 -7.30163 -16.9484 7.44257 -213.459
lowerback 41.2421 -0.328942 -2.7877
upperback 14.5312 -1.42168 -7.55394
thorax -3.76033 0.408498 -6.12632
lowerneck -7.17737 -4.90116 -8.99166
upperneck 12.2476 -4.92165 -5.62794
head 4.99069 -3.18983 -0.623885
rclavicle -1.90833e-014 -4.77083e-014
rhumerus -14.3099 8.70317 -62.0563
rradius 109.201
rwrist 6.83456
rhand -36.7826 -9.75881
rfingers 7.12502
rthumb -9.86486 -39.5077
lclavicle -1.90833e-014 -4.77083e-014
lhumerus 68.1587 -29.9384 49.9423
lradius 79.8701
lwrist -17.5043
lhand -49.6539 -17.7381
lfingers 7.12502
lthumb -22.2568 11.0003
rfemur -39.2891 -34.6913 25.5564
rtibia 112.246
rfoot 13.629 4.54299
rtoes 1.66556
lfemur -68.5066 16.8631 1.61131
ltibia 93.8732
lfoot 13.3959 -2.11778
ltoes -0.230343
111
root 1.47921 7.24644 -7.76727 -15.1834 10.1311 -213.885
lowerback 42.3854 0.160427 -2.67383
upperback 14.9811 -0.497331 -6.61323
thorax -3.4638 0.966199 -5.53627
lowerneck -7.15519 -5.52224 -9.21145
upperneck 12.2994 -6.02367 -3.35019
head 5.08733 -3.59618 0.0360556
rclavicle 1.90833e-014 4.13472e-014
rhumerus -14.191 7.35713 -62.332
rradius 109.811
rwrist 7.33688
rhand -37.1546 -14.1968
rfingers 7.12502
rthumb -10.2238 -43.9284
lclavicle 1.90833e-014 4.13472e-014
lhumerus 67.5768 -32.1731 50.9038
lradius 80.8946
lwrist -16.73
lhand -47.9747 -14.2849
lfingers 7.12502
lthumb -20.6441 14.6373
rfemur -40.3874 -36.0899 24.7253
rtibia 114.077
rfoot 13.59 4.70976
rtoes 0.795438
lfemur -69.3539 16.9902 0.84373
ltibia 95.3409
lfoot 13.8672 -2.30527
ltoes 0.661053
112
root 1.41494 6.79175 -8.23153 -13.2852 12.98 -214.234
lowerback 43.7301 0.670253 -2.49949
upperback 15.2638 0.496078 -5.44562
thorax -3.41077 1.54301 -4.77436
lowerneck -7.07405 -6.15381 -9.54898
upperneck 12.0421 -7.16047 -0.890931
head 5.11898 -3.99793 0.770571
rclavicle 6.36111e-015 1.65389e-013
rhumerus -13.9194 5.77428 -61.9751
rradius 109.682
rwrist 6.87145
rhand -37.9826 -13.6834
rfingers 7.12502
rthumb -11.0225 -43.374
lclavicle 6.36111e-015 1.65389e-013
lhumerus 66.6861 -34.6265 52.0561
lradius 82.1412
lwrist -15.5354
lhand -46.9119 -11.2805
lfingers 7.12502
lthumb -19.6226 17.7492
rfemur -41.6626 -37.7559 23.873
rtibia 116.009
rfoot 13.6286 4.83021
rtoes 0.0184578
lfemur -70.5494 17.0463 -0.194159
ltibia 97.0371
lfoot 14.4002 -2.32098
ltoes 1.8987
113
root 1.34794 6.34868 -8.6946 -11.2335 16.0078 -214.536
lowerback 45.1645 1.10987 -2.16319
upperback 15.4162 1.49375 -4.09074
thorax -3.54419 2.10703 -3.91491
lowerneck -6.94899 -6.76683 -10.0229
upperneck 11.4625 -8.24544 1.55155
head 5.07964 -4.37406 1.52685
rclavicle -1.24042e-013 4.77083e-014
rhumerus -13.5296 4.42084 -61.1295
rradius 109.231
rwrist 6.29371
rhand -38.897 -13.1709
rfingers 7.12502
rthumb -11.9043 -42.8125
lclavicle -1.24042e-013 4.77083e-014
lhumerus 65.3794 -37.1649 53.391
lradius 83.6416
lwrist -14.0284
lhand -46.5085 -8.2461
lfingers 7.12502
lthumb -19.2347 20.8227
rfemur -43.1192 -39.7364 23.0495
rtibia 118.033
rfoot 13.7598 4.93224
rtoes -0.590937
lfemur -72.1337 17.027 -1.49489
ltibia 98.9865
lfoot 14.9119 -2.20247
ltoes 3.42959
114
root 1.279 5.91731 -9.15554 -9.02709 19.1988 -214.791
lowerback 46.6264 1.3881 -1.61769
upperback 15.4287 2.40355 -2.64885
thorax -3.86398 2.61306 -3.05461
lowerneck -6.76391 -7.28724 -10.4813
upperneck 10.6566 -9.1485 3.67743
head 4.96679 -4.68271 2.19912
rclavicle -1.17681e-013 -9.54166e-015
rhumerus -12.9358 3.40001 -59.9634
rradius 108.361
rwrist 5.42452
rhand -39.7136 -12.7676
rfingers 7.12502
rthumb -12.6916 -42.362
lclavicle -1.17681e-013 -9.54166e-015
lhumerus 63.4197 -39.6244 54.942
lradius 85.3614
lwrist -12.5339
lhand -46.6526 -6.00069
lfingers 7.12502
lthumb -19.3733 23.0542
rfemur -44.7276 -42.0357 22.2963
rtibia 120.116
rfoot 13.9906 5.04877
rtoes -1.03973
lfemur -74.0604 16.9489 -3.03279
ltibia 101.181
lfoot 15.3416 -2.02246
ltoes 5.08355
115
root 1.20878 5.49666 -9.61287 -6.68357 22.5353 -215.008
lowerback 49.0376 1.40805 -0.884501
upperback 14.3612 3.14429 -1.27695
thorax -4.32662 3.02223 -2.27835
lowerneck -6.60751 -7.67938 -10.8462
upperneck 9.75006 -9.80552 5.33837
head 4.8063 -4.90326 2.73166
rclavicle 5.08889e-014 -1.43125e-014
rhumerus -12.0413 2.78894 -58.6284
rradius 107.1
rwrist 4.10974
rhand -40.1854 -12.5875
rfingers 7.12502
rthumb -13.1465 -42.153
lclavicle 5.08889e-014 -1.43125e-014
lhumerus 60.5869 -41.7544 56.7757
lradius 87.2704
lwrist -11.3569
lhand -46.9616 -4.71027
lfingers 7.12502
lthumb -19.6704 24.3145
rfemur -46.3948 -44.6125 21.6365
rtibia 122.21
rfoot 14.312 5.15339
rtoes -0.988219
lfemur -76.2353 16.8177 -4.7524
ltibia 103.585
lfoot 15.6573 -1.91054
ltoes 6.52458
116
root 1.13806 5.08404 -10.0639 -4.21034 25.9673 -215.17
lowerback 50.4687 1.08314 0.212351
upperback 14.0717 3.64441 -0.0689239
thorax -4.86068 3.31212 -1.74851
lowerneck -6.46956 -7.93509 -11.0263
upperneck 8.87514 -10.2225 6.4764
head 4.61621 -5.03881 3.09252
rclavicle 3.49861e-014 -8.5875e-014
rhumerus -10.892 2.5262 -57.2992
rradius 105.59
rwrist 2.23965
rhand -40.0957 -12.6983
rfingers 7.12502
rthumb -13.0601 -42.2694
lclavicle 3.49861e-014 -8.5875e-014
lhumerus 56.6926 -43.4235 59.0205
lradius 89.3129
lwrist -10.7962
lhand -47.0531 -4.09757
lfingers 7.12502
lthumb -19.7583 24.9182
rfemur -48.0943 -47.3502 21.151
rtibia 124.238
rfoot 14.7281 5.21546
rtoes -0.435424
lfemur -78.5292 16.6804 -6.59671
ltibia 106.139
lfoot 15.8757 -1.99697
ltoes 7.43717
